M48
INCH
T01C0.0295
T02C0.032
T03C0.0472
T04C0.0512
T05C0.063
T06C0.138
%
T01
X-014449Y-001791
X-013949Y-001791
X-013449Y-001791
X-011437Y-001713
X-010937Y-001713
X-010437Y-001713
T02
X-004685Y-008825
X-004685Y-009809
X-002283Y-009994
X-002283Y-006994
X-003720Y-006955
X-004720Y-006955
X-008012Y-007224
X-008012Y-009193
X-009843Y-005953
X-012205Y-004469
X-013205Y-004469
X-014205Y-004469
X-014209Y-005965
X-013209Y-005965
X-014412Y-008275
X-009843Y-002953
X-010622Y+000472
X-010650Y+001811
X-013622Y+000472
X-014650Y+001811
X-006207Y+001866
X-006207Y+000411
X-002473Y-002407
X-002460Y-003765
X+000540Y-003765
X+000527Y-002407
X+001933Y-003855
X+004618Y-003823
X+006051Y-003805
X+006043Y-002340
X+004563Y-000972
X+002075Y-000969
X-000500Y+000684
X-000500Y+001684
X-000500Y+002684
X+002075Y+003031
X+004563Y+003028
X+007815Y+002505
X+007815Y+001505
X+007815Y+000505
X+009043Y-002340
X+009051Y-003805
X+009139Y-008301
X+004799Y-009439
X+004618Y-007823
X+001933Y-007855
X+001799Y-009439
X+013057Y+000227
X+013057Y+001690
X+003275Y+008323
T03
X-007677Y+006496
X-007677Y+008465
T04
X+010846Y-004323
X+010846Y+001677
X-004225Y+001850
X-004225Y-004150
T05
X+006425Y+008448G85X+006425Y+008198
X+000126Y+008448G85X+000126Y+008198
T06
X-011811Y-008268
X-011811Y+009449
X+011811Y+009449
X+011811Y-008268
T00
M30
